HIERARCHY
ROOT Hips
{
    OFFSET 0.000000 0.000000 0.000000
    CHANNELS 6 Xposition Yposition Zposition Zrotation Xrotation Yrotation
    JOINT Spine
    {
        OFFSET -0.000000 0.084758 0.000000
        CHANNELS 3 Zrotation Xrotation Yrotation
        JOINT Spine1
        {
            OFFSET -0.000000 0.191147 0.000000
            CHANNELS 3 Zrotation Xrotation Yrotation
            JOINT Neck
            {
                OFFSET -0.000000 0.190362 0.017306
                CHANNELS 3 Zrotation Xrotation Yrotation
                JOINT Head
                {
                    OFFSET -0.000000 0.137636 -0.018234
                    CHANNELS 3 Zrotation Xrotation Yrotation
                    End Site
                    {
                        OFFSET -0.000000 0.192337 0.000000
                    }
                }
            }
            JOINT LeftShoulder
            {
                OFFSET 0.036871 0.177698 0.000387
                CHANNELS 3 Zrotation Xrotation Yrotation
                JOINT LeftArm
                {
                    OFFSET 0.095382 0.000000 0.000000
                    CHANNELS 3 Zrotation Xrotation Yrotation
                    JOINT LeftForeArm
                    {
                        OFFSET 0.293961 0.000000 0.000000
                        CHANNELS 3 Zrotation Xrotation Yrotation
                        JOINT LeftHand
                        {
                            OFFSET 0.232729 0.000000 0.000000
                            CHANNELS 3 Zrotation Xrotation Yrotation
                            End Site
                            {
                                OFFSET 0.136753 0.000000 0.000000
                            }
                        }
                    }
                }
            }
            JOINT RightShoulder
            {
                OFFSET -0.036027 0.177698 0.000387
                CHANNELS 3 Zrotation Xrotation Yrotation
                JOINT RightArm
                {
                    OFFSET -0.095382 0.000000 0.000000
                    CHANNELS 3 Zrotation Xrotation Yrotation
                    JOINT RightForeArm
                    {
                        OFFSET -0.293961 0.000000 0.000000
                        CHANNELS 3 Zrotation Xrotation Yrotation
                        JOINT RightHand
                        {
                            OFFSET -0.232729 0.000000 0.000000
                            CHANNELS 3 Zrotation Xrotation Yrotation
                            End Site
                            {
                                OFFSET -0.136753 0.000000 0.000000
                            }
                        }
                    }
                }
            }
        }
    }
    JOINT LeftUpLeg
    {
        OFFSET 0.091168 0.000000 0.000000
        CHANNELS 3 Zrotation Xrotation Yrotation
        JOINT LeftLeg
        {
            OFFSET -0.000000 -0.426795 0.000000
            CHANNELS 3 Zrotation Xrotation Yrotation
            JOINT LeftFoot
            {
                OFFSET -0.000000 -0.358392 0.000000
                CHANNELS 3 Zrotation Xrotation Yrotation
                JOINT LeftToeBase
                {
                    OFFSET -0.000000 -0.059259 0.136753
                    CHANNELS 3 Zrotation Xrotation Yrotation
                    End Site
                    {
                        OFFSET -0.000000 0.000000 0.036467
                    }
                }
            }
        }
    }
    JOINT RightUpLeg
    {
        OFFSET -0.091168 0.000000 0.000000
        CHANNELS 3 Zrotation Xrotation Yrotation
        JOINT RightLeg
        {
            OFFSET -0.000000 -0.426795 0.000000
            CHANNELS 3 Zrotation Xrotation Yrotation
            JOINT RightFoot
            {
                OFFSET -0.000000 -0.358392 0.000000
                CHANNELS 3 Zrotation Xrotation Yrotation
                JOINT RightToeBase
                {
                    OFFSET -0.000000 -0.059259 0.136753
                    CHANNELS 3 Zrotation Xrotation Yrotation
                    End Site
                    {
                        OFFSET -0.000000 0.000000 0.036467
                    }
                }
            }
        }
    }
}
MOTION
Frames:    11
Frame Time:    0.008333    
1.151660    0.888396    -0.221676    -0.925783    -0.092005    89.971359    -4.805568    6.570004    -6.791282    0.796899    -3.652880    -2.330660    2.740239    14.532140    -3.284051    3.606899    6.092224    -3.137662    15.814522    3.576871    2.586178    -26.039272    7.835777    4.951260    29.364937    -4.065315    -14.351433    9.005816    0.245287    6.757023    -11.325256    0.998708    -7.737051    28.588013    -3.845815    -18.572865    -13.894652    -22.254623    8.183449    -16.453321    -19.708738    -11.907104    9.594291    -20.048872    -7.589875    0.744322    37.531487    1.055937    -6.125687    -10.411317    15.790965    0.216891    -2.998140    -0.645714    3.484946    -1.238648    19.817810    -2.657500    27.994516    31.950281    -16.499809    -17.320629    -34.646561    -0.629611    -6.759023    8.021923    
1.158211    0.887125    -0.221911    -0.785216    -0.134994    88.262459    -4.850466    6.379938    -6.516565    0.571180    -3.347272    -2.245967    2.586148    14.551909    -2.686066    3.644539    6.072936    -2.507807    15.978902    3.503472    2.748507    -25.842537    7.810774    5.109907    29.779869    -3.916244    -14.504206    8.176629    0.448388    6.835105    -11.365355    0.947525    -7.313647    28.455568    -3.830471    -18.454899    -13.762884    -22.143335    8.161253    -15.846617    -19.706882    -11.613007    9.920400    -20.444429    -7.897110    0.846060    36.992767    1.007961    -6.438723    -10.385720    15.581747    0.220664    -2.600925    -0.669019    3.491396    -0.960399    20.090893    -3.057897    28.364422    31.682661    -16.403549    -17.964710    -33.061878    -0.661565    -6.678694    8.208021    
1.164583    0.886005    -0.222231    -0.663156    -0.169049    86.596634    -4.938723    6.290537    -6.121464    0.405780    -3.205928    -2.119972    2.618865    14.501021    -2.242591    3.434266    6.211193    -2.070876    16.224224    3.335338    2.682886    -25.821033    7.810622    5.283461    30.243168    -3.932071    -14.575196    8.007476    0.505150    6.798926    -11.349352    1.001732    -7.118616    28.290291    -3.765018    -18.261465    -13.675913    -22.064428    8.161773    -15.894217    -19.624285    -11.640303    10.261134    -20.848959    -8.368247    0.804650    36.380772    1.031918    -6.508270    -10.293464    15.333323    0.174510    -2.606511    -0.505482    3.500000    -0.801517    20.689693    -3.287612    28.981577    32.658581    -16.848185    -18.232519    -33.186096    -0.686247    -6.748999    8.484346    
1.171119    0.884710    -0.222529    -0.494447    -0.178942    84.966393    -5.080279    6.237177    -5.722763    0.282564    -3.048827    -1.992688    2.548525    14.352859    -1.735331    3.365306    6.479484    -1.559029    16.452118    3.165040    2.586813    -25.727207    7.767614    5.496828    30.454208    -4.174399    -14.814185    8.638234    0.402333    6.925853    -11.501284    1.010008    -6.963529    28.344910    -3.481526    -18.089390    -13.729229    -22.111500    8.065660    -15.624015    -19.714870    -11.571548    10.614403    -21.229069    -8.868730    0.752505    35.888050    0.244110    -6.281239    -10.137084    15.848716    0.138682    -2.623215    -0.378096    3.448864    -0.610682    21.168114    -3.524287    29.637550    33.863045    -17.370333    -18.480167    -33.475357    -0.712027    -6.722127    8.671346    
1.177643    0.883574    -0.223019    -0.365474    -0.229616    83.315155    -5.103614    6.199932    -5.325531    0.037190    -3.020801    -1.866691    2.648942    14.388667    -1.278114    3.091765    6.522902    -1.108805    16.668846    3.108239    2.531085    -25.645054    7.862593    5.637607    30.864979    -4.202215    -14.864255    8.225731    0.421463    6.933777    -11.430812    1.124857    -6.753358    28.338264    -3.083846    -17.915560    -13.875304    -22.389544    8.007496    -15.917883    -19.943249    -11.740997    11.034588    -21.572548    -9.169507    0.885472    35.241787    0.072792    -6.254815    -9.467176    15.481591    0.084112    -3.302701    -0.158326    3.401964    -0.441470    21.851673    -3.627463    30.218914    34.182579    -17.723875    -18.793192    -33.139599    -0.681047    -6.915442    8.612895    
1.184466    0.882382    -0.223467    -0.153518    -0.315981    81.677505    -5.208474    6.179663    -4.900778    0.012162    -2.885095    -1.727450    2.588281    14.442038    -0.852954    2.870891    6.455105    -0.681124    16.727282    2.992960    2.536787    -25.403435    7.625261    5.664231    30.968262    -4.220471    -15.061090    8.546526    0.498628    7.014013    -11.713923    1.080226    -6.597261    28.481436    -2.756510    -17.777205    -14.038593    -22.368549    7.952888    -15.666471    -19.965521    -11.561987    11.412375    -21.707853    -9.484220    1.345590    34.530376    -0.242885    -6.707292    -9.217869    15.003651    0.165164    -2.934785    -0.462460    3.383972    -0.190638    22.409466    -3.808538    30.875881    35.081730    -18.195034    -18.880766    -33.326939    -0.651976    -7.313798    8.789760    
1.191209    0.881223    -0.224275    -0.010147    -0.332060    80.054306    -5.277556    6.132304    -4.541312    -0.107531    -2.870723    -1.611168    2.595044    14.601737    -0.413029    2.484968    6.388112    -0.251526    16.806585    2.924295    2.488222    -25.303890    7.527917    5.791870    31.282295    -4.202740    -15.123334    8.077739    0.547462    6.979996    -11.813186    1.233895    -6.409520    28.339491    -2.649330    -17.529560    -13.986774    -22.379076    8.003651    -15.894654    -19.948200    -11.588074    11.798227    -21.935507    -9.895012    1.518086    33.810234    -0.593943    -6.572926    -8.546868    14.681867    0.190836    -2.955287    -0.553629    3.282435    -0.061753    22.657303    -4.227417    31.557957    36.247807    -18.612577    -19.016241    -33.371510    -0.607605    -7.860130    9.010981    
1.198079    0.880097    -0.225249    0.129873    -0.368602    78.446342    -5.285077    6.047366    -4.239347    -0.284016    -2.791115    -1.513570    2.453829    14.629347    0.106575    2.381238    6.448367    0.282361    16.883944    2.791659    2.515087    -25.081154    7.147053    5.921839    31.224062    -4.332645    -15.419523    8.907944    0.548727    7.028648    -11.947315    1.234787    -6.123782    28.217215    -2.455358    -17.372377    -13.884570    -22.544916    8.083472    -16.660801    -19.976807    -12.041706    12.156198    -22.146845    -10.296049    1.864302    33.127285    -1.195264    -6.868980    -7.887919    14.397945    0.180916    -3.093573    -0.514130    3.122920    0.085009    23.082394    -4.453834    32.194019    36.766636    -18.818542    -19.350554    -33.074799    -0.617760    -7.963685    9.224961    
1.204994    0.878816    -0.226087    0.256927    -0.405195    76.836250    -5.301805    5.938931    -3.959740    -0.416612    -2.723193    -1.421966    2.423856    14.742071    0.626397    1.923339    6.426160    0.786680    16.773771    2.857842    2.446556    -24.804213    6.956172    6.212538    31.518150    -4.195266    -15.482258    7.966611    0.683870    6.958162    -12.034636    1.351049    -5.922083    28.043215    -2.431559    -17.020723    -13.962605    -22.172234    8.048983    -15.938891    -19.730595    -11.583440    12.533292    -22.401302    -10.632416    2.260973    32.587406    -1.859507    -7.028433    -7.226702    14.108641    0.282994    -2.482012    -0.891796    2.960720    0.142239    23.491631    -4.620924    32.980556    37.115768    -19.263708    -19.680138    -32.522072    -0.563468    -8.169971    8.969528    
1.212037    0.877735    -0.227303    0.404143    -0.444871    75.232903    -5.267687    5.849685    -3.632062    -0.708202    -2.631545    -1.317164    2.547100    14.817582    1.084069    1.564958    6.369803    1.232591    17.111948    2.716096    2.512799    -24.878237    6.793580    6.266046    31.639795    -4.261803    -15.600771    8.578427    0.711783    7.021082    -11.919951    1.458273    -5.613075    27.685284    -2.444247    -16.856733    -13.839409    -22.175991    8.124493    -16.089809    -19.721872    -11.564609    12.949914    -22.547932    -11.134105    2.521117    31.933207    -3.307693    -7.177633    -6.563521    14.574008    0.216321    -2.886672    -0.646496    2.714264    0.188372    23.736326    -4.820419    33.757488    38.257488    -19.557175    -19.733435    -32.589111    -0.502147    -8.558919    8.858282    
1.219334    0.876562    -0.228181    0.597658    -0.573103    73.649368    -5.211740    5.803141    -3.361530    -0.902550    -2.529578    -1.228976    2.464052    14.765205    1.617053    1.406540    6.555322    1.771241    17.210094    2.716369    2.568779    -24.729530    6.526495    6.389013    31.735773    -4.290625    -15.750776    8.459048    0.734461    7.041147    -11.894499    1.423597    -5.392311    27.441662    -2.215311    -16.558567    -13.804645    -22.297792    8.173441    -17.218084    -19.651964    -12.124360    13.321184    -22.658789    -11.420135    3.134722    31.436110    -4.182749    -7.347580    -5.762479    14.090223    0.157902    -2.546259    -0.448530    2.572659    0.272481    24.215015    -4.881145    34.639851    39.060734    -20.017250    -19.756119    -32.691254    -0.511345    -8.732676    9.163211    
